<?xml version="1.0" encoding="UTF-8"?>
<svg id="Layer_2" data-name="Layer 2" xmlns="http://www.w3.org/2000/svg" viewBox="0 0 589.72 107.27">
  <defs>
    <style>
      .cls-1 {
        fill: #6b8c9c;
      }

      .cls-2 {
        fill: #b8d0dc;
      }

      .cls-3 {
        fill: #7894a3;
      }
    </style>
  </defs>
  <g id="Layer_1-2" data-name="Layer 1">
    <g>
      <path class="cls-3" d="m576.91,61.83h1.74v9.05h1.66v-9.05h1.73v-1.51h-5.13v1.51h0Zm8.14-1.51h-2.31v10.56h1.45v-7.47l1.24,7.47h1.57l1.15-7.57v7.57h1.57v-10.56h-2.31l-1.13,7.5-1.22-7.5h0Z"/>
      <path class="cls-3" d="m244.82,106.67c1.21.13,2.21.13,3.56.13,5.57,0,10.6-2.42,10.6-11.81v-35.29h-7.38v35.83c0,3.62-1.88,4.49-4.23,4.49-.81,0-1.75,0-2.55-.07v6.71h0Zm18.85-46.96v35.76c0,7.51,3.76,11.81,11,11.81s11-4.29,11-11.81v-35.76h-6.98v36.23c0,3.35-1.48,4.56-3.83,4.56s-3.82-1.21-3.82-4.56v-36.23h-7.38Zm26.1,11.27c0,13.42,14.42,15.23,14.42,24.89,0,3.36-1.48,4.56-3.82,4.56s-3.82-1.21-3.82-4.56v-3.35h-6.98v2.89c0,7.51,3.76,11.81,11,11.81s11-4.29,11-11.81c0-13.42-14.43-15.23-14.43-24.89,0-3.35,1.34-4.63,3.69-4.63s3.69,1.27,3.69,4.63v1.95h6.98v-1.48c0-7.51-3.69-11.81-10.87-11.81s-10.87,4.29-10.87,11.81h0Zm23.88-4.56h7.72v40.26h7.38v-40.26h7.71v-6.71h-22.81v6.71h0Zm47.56,20.8h3.35v8.65c0,3.36-1.48,4.56-3.82,4.56s-3.82-1.21-3.82-4.56v-25.36c0-3.35,1.48-4.63,3.82-4.63s3.82,1.27,3.82,4.63v5.03h6.98v-4.56c0-7.51-3.76-11.81-11-11.81s-11,4.29-11,11.81v24.42c0,7.51,3.76,11.81,11,11.81s11-4.29,11-11.81v-14.89h-10.33v6.71h0Zm21.87-16.71c0-3.35,1.48-4.63,3.82-4.63s3.82,1.27,3.82,4.63v25.36c0,3.36-1.48,4.63-3.82,4.63s-3.82-1.27-3.82-4.63v-25.36h0Zm-7.38,24.89c0,7.51,3.96,11.81,11.2,11.81s11.21-4.29,11.21-11.81v-24.42c0-7.51-3.96-11.81-11.21-11.81s-11.2,4.29-11.2,11.81v24.42h0Zm25.02-28.98h7.71v40.26h7.38v-40.26h7.71v-6.71h-22.81v6.71h0Zm43.87,0h12.75v-6.71h-20.13v46.96h20.13v-6.71h-12.75v-13.75h10.13v-6.71h-10.13v-13.08h0Zm33.68-6.71h-10.8l-7.51,46.96h6.78l1.27-8.52h9.06l1.27,8.52h7.45l-7.51-46.96h0Zm-5.77,8.32l3.56,23.75h-7.11l3.56-23.75h0Zm15.77,2.95c0,13.42,14.43,15.23,14.43,24.89,0,3.36-1.48,4.56-3.82,4.56s-3.82-1.21-3.82-4.56v-3.35h-6.98v2.89c0,7.51,3.76,11.81,11,11.81s11-4.29,11-11.81c0-13.42-14.43-15.23-14.43-24.89,0-3.35,1.34-4.63,3.69-4.63s3.69,1.27,3.69,4.63v1.95h6.98v-1.48c0-7.51-3.69-11.81-10.87-11.81s-10.87,4.29-10.87,11.81h0Zm26.03,35.69h7.38v-46.96h-7.38v46.96h0Zm20.13-40.26h12.75v-6.71h-20.13v46.96h20.13v-6.71h-12.75v-13.75h10.13v-6.71h-10.13v-13.08h0Zm40.26,40.26c-.74-1.74-.8-3.42-.8-5.7v-7.25c0-4.9-1.21-8.45-4.9-10,3.29-1.54,4.83-4.7,4.83-9.53v-3.69c0-7.25-3.29-10.8-10.94-10.8h-11.14v46.96h7.38v-19.12h2.55c3.35,0,4.83,1.61,4.83,5.97v7.38c0,3.83.27,4.56.67,5.77h7.52Zm-12.01-40.26c2.62,0,3.76,1.48,3.76,4.83v4.63c0,3.76-1.68,4.96-4.43,4.96h-2.88v-14.42h3.56Z"/>
      <path class="cls-3" d="m259.07,30.42h3.64v9.39c0,3.64-1.6,4.95-4.15,4.95s-4.15-1.31-4.15-4.95V12.3c0-3.64,1.6-5.02,4.15-5.02s4.15,1.38,4.15,5.02v5.46h7.57v-4.95c0-8.15-4.08-12.81-11.94-12.81s-11.94,4.66-11.94,12.81v26.49c0,8.15,4.08,12.81,11.94,12.81s11.94-4.66,11.94-12.81v-16.16h-11.21v7.28h0Zm24.38-22.56h13.83V.58h-21.83v50.95h21.83v-7.28h-13.83v-14.92h10.99v-7.28h-10.99V7.86h0Zm16.45,0h8.37v43.67h8.01V7.86h8.37V.58h-24.75v7.28h0Zm25.91,0h8.37v43.67h8.01V7.86h8.37V.58h-24.75v7.28h0Zm28.24,43.67h8.01V.58h-8.01v50.95h0Zm30.93,0h8.22V.58h-7.13v30.5l-8.22-30.5h-10.04v50.95h7.2V14.63l9.97,36.9h0Zm25.98-21.11h3.64v9.39c0,3.64-1.6,4.95-4.15,4.95s-4.15-1.31-4.15-4.95V12.3c0-3.64,1.6-5.02,4.15-5.02s4.15,1.38,4.15,5.02v5.46h7.57v-4.95c0-8.15-4.08-12.81-11.94-12.81s-11.94,4.66-11.94,12.81v26.49c0,8.15,4.08,12.81,11.94,12.81s11.94-4.66,11.94-12.81v-16.16h-11.21v7.28h0Zm25.85-22.56h8.37v43.67h8.01V7.86h8.37V.58h-24.75v7.28h0Zm36.25,21.83h9.1v21.83h8.15V.58h-8.15v21.83h-9.1V.58h-8.01v50.95h8.01v-21.83h0Zm31.08-21.83h13.83V.58h-21.83v50.95h21.83v-7.28h-13.83v-14.92h10.99v-7.28h-10.99V7.86h0Zm43.67,43.67c-.8-1.89-.87-3.71-.87-6.19v-7.86c0-5.31-1.31-9.17-5.31-10.84,3.57-1.67,5.24-5.09,5.24-10.34v-4c0-7.86-3.57-11.72-11.86-11.72h-12.08v50.95h8.01v-20.74h2.77c3.64,0,5.24,1.75,5.24,6.48v8.01c0,4.15.29,4.95.73,6.26h8.15Zm-13.03-43.67c2.84,0,4.08,1.6,4.08,5.24v5.02c0,4.08-1.82,5.39-4.8,5.39h-3.13V7.86h3.86Zm25.4,0h13.83V.58h-21.83v50.95h21.83v-7.28h-13.83v-14.92h10.99v-7.28h-10.99V7.86h0Z"/>
      <polygon class="cls-2" points="219.44 106.44 220.23 106.44 220.23 0 219.44 0 219.44 106.44 219.44 106.44"/>
      <path class="cls-1" d="m15.49,101.07h1.19l-4.35-10.17-4.47,10.17h1.19l1.16-2.74h4.13l1.14,2.74h0Zm-4.85-3.75l1.66-3.89,1.63,3.89h-3.29Zm22.3-5.95v9.71h2.42c.67,0,1.56-.03,2.33-.64.52-.41.99-1.16.99-2.1s-.49-2.11-1.85-2.44c.86-.58.96-1.43.96-1.91,0-1.18-.57-1.78-.87-2.01-.71-.57-1.69-.61-2.23-.61h-1.75Zm1.08,1.02h.84c.31,0,1.88.03,1.88,1.63,0,1.5-1.34,1.61-1.91,1.61h-.82v-3.24h0Zm0,4.21h1.11c.77,0,1.28.09,1.64.29.38.2.83.65.83,1.43,0,.58-.26,1.06-.64,1.34-.47.36-1.08.41-1.7.41h-1.24v-3.46h0Zm19.88-4.42c-1.16-.89-2.29-.96-2.87-.96-2.91,0-5.08,2.15-5.08,5.05s2.14,4.99,5.02,4.99c.73,0,1.85-.17,2.93-.95v-1.34c-.17.18-.57.54-1.12.82-.51.26-1.15.45-1.8.45-1.78,0-3.92-1.33-3.92-3.96,0-2.24,1.66-4.05,3.9-4.05.57,0,1.16.15,1.67.38.49.23.96.6,1.27.9v-1.34h0Zm15.22,0c-1.16-.89-2.29-.96-2.87-.96-2.91,0-5.08,2.15-5.08,5.05s2.14,4.99,5.02,4.99c.73,0,1.85-.17,2.93-.95v-1.34c-.17.18-.57.54-1.12.82-.51.26-1.15.45-1.8.45-1.78,0-3.92-1.33-3.92-3.96,0-2.24,1.66-4.05,3.9-4.05.57,0,1.16.15,1.67.38.49.23.96.6,1.27.9v-1.34h0Zm24.29,0c-1.16-.89-2.28-.96-2.87-.96-2.91,0-5.08,2.15-5.08,5.05s2.14,4.99,5.02,4.99c.73,0,1.85-.17,2.93-.95v-1.34c-.18.18-.57.54-1.12.82-.51.26-1.15.45-1.81.45-1.78,0-3.91-1.33-3.91-3.96,0-2.24,1.66-4.05,3.9-4.05.57,0,1.16.15,1.67.38.5.23.96.6,1.27.9v-1.34h0Zm12.33,9.08c2.81,0,5.05-2.14,5.05-5.02s-2.26-5.02-5.05-5.02-5.05,2.13-5.05,5.02,2.24,5.02,5.05,5.02h0Zm0-9.02c2.18,0,3.94,1.78,3.94,4s-1.76,4-3.94,4-3.95-1.78-3.95-4,1.76-4,3.95-4h0Zm13.62,8.85l.96-6.75,3.26,7.16,3.3-7.16.92,6.75h1.11l-1.51-10.26-3.8,8.21-3.73-8.19-1.62,10.25h1.11Zm17.61-9.71v9.71h1.08v-4.22h.95c2.21,0,3.07-1.35,3.07-2.72,0-.61-.18-1.47-.89-2.08-.65-.57-1.47-.68-2.44-.68h-1.76Zm1.08,1.02h.8c.7,0,2.14.15,2.14,1.69,0,1.12-.77,1.76-2.05,1.76h-.89v-3.45h0Zm17.12,8.69h1.19l-4.35-10.17-4.47,10.17h1.19l1.16-2.74h4.13l1.13,2.74h0Zm-4.85-3.75l1.66-3.89,1.63,3.89h-3.29Zm14.31,3.75v-7.5l7.57,7.93v-10.14h-1.08v7.52l-7.57-7.93v10.12h1.08Zm17.95,0h1.08v-4.18l3.22-5.53h-1.25l-2.5,4.34-2.47-4.34h-1.25l3.19,5.53v4.18h0Z"/>
      <path class="cls-1" d="m194.73,56.91c.02-1.39-.29-1.79-1.75-1.78-12.54.06-25.09,0-37.63.09-1.87.01-2.24-.49-2.23-2.28.07-17.04.03-34.08.08-51.12,0-1.38-.27-1.82-1.74-1.81-11.08.07-22.17.08-33.26,0-1.61-.01-1.85.55-1.81,1.94.08,2.62,0,5.24-.02,7.86-.28-.06-.63-.14-1.11-.23-5.92-1-11.11-.26-15.9,2.24-.05-3.29-.18-6.59-.07-9.87.05-1.65-.5-1.94-2.02-1.93-10.96.07-21.92.06-32.88,0-1.43,0-1.92.27-1.9,1.83.09,7.73,0,15.46.07,23.18.01,1.34-.34,1.67-1.67,1.66-7.41-.07-14.82-.07-22.23,0-1.39.01-1.81-.29-1.79-1.75.08-7.73.01-15.46.06-23.18,0-1.25-.19-1.75-1.62-1.75C24.1.07,12.89.06,1.68.01.41,0,.12.37.13,1.59c.04,25.21.04,50.42,0,75.63,0,1.28.39,1.54,1.59,1.54,11.15-.04,22.3-.05,33.45,0,1.43,0,1.79-.36,1.78-1.78-.07-9.06.01-18.12-.08-27.17-.02-1.62.45-1.96,2-1.94,7.28.09,14.57.08,21.85,0,1.51-.02,1.86.4,1.85,1.87-.07,9.12-.02,18.24-.05,27.36,0,1.11.1,1.67,1.48,1.66,11.28-.06,22.55-.05,33.83,0,1.23,0,1.45-.42,1.45-1.53-.03-3.67.03-7.34.07-11.01,1.42.18,2.85.28,4.26.28,4.32,0,8.59-.86,12.75-2.55.03,4.38.1,8.76.04,13.13-.02,1.32.32,1.69,1.67,1.69,25.02-.04,50.04-.04,75.07,0,1.41,0,1.62-.47,1.61-1.72-.06-6.71-.07-13.43,0-20.14h0Zm-47.36-23.6c-.08,1.68-.08,3.51,0,5.76.02.52-.07.87-.24,1.02-.14.12-.38.14-.72.07-4.5-.99-7.72.76-9.84,5.34-.75,1.62-2.07,2.95-3.43,4.21-.67.96-.66,1.29.09,2.35l.06.07c.1.08.76.85.91,1.08,2.7,4.05,6.46,3.79,10.85,3.49l.54-.04c.86-.06,1.48-.11,1.63.04.14.13.13.67.13,1.42,0,.24,0,.51,0,.81,0,.65,0,1.29,0,1.94,0,1.01-.01,2.03.01,3.04.01.34-.04.57-.16.69-.04.04-.11.07-.18.09-.1.01-.2.04-.32.03-5.45-.02-10.89-.02-16.33,0-.8,0-1.29-.39-1.78-.9-.41-.42-.82-.84-1.23-1.26-.02-.02-.04-.04-.06-.06-.85-.87-1.69-1.75-2.51-2.65-.16-.18-.31-.3-.47-.41-.34-.27-.65-.37-1.04-.21-.26.06-.53.18-.83.41-2.14,1.62-4.2,2.81-6.29,3.64-5.46,2.24-11.13,2.99-16.82,2.25,0-.02,0-.05,0-.07h0c-3.33-.38-6.43-1.27-9.18-2.83-1.92-1.13-3.6-2.55-5.03-4.31-2.63-3.23-3.76-6.91-3.27-10.63.51-3.92,2.86-7.56,6.59-10.25,2.77-1.99,5.91-3.69,10.17-5.51l.43-.19-.31-.36c-2.84-3.24-4.73-6.16-4.71-9.87.02-3.87,1.85-6.9,5.42-9,3.37-1.8,6.95-2.7,10.86-2.7,1.55,0,3.16.14,4.82.42.52.1.9.18,1.19.24.36.08.6.14.83.14l.86.28c1.5.49,2.49.81,4,1.72,2.99,1.8,4.76,4.44,4.97,7.43.23,3.23-1.32,6.56-4.16,8.9-1.76,1.45-3.52,2.54-5.36,3.33-.38.16-.82.4-.91.84-.09.44.22.86.54,1.21,2.48,2.7,4.93,5.47,7.09,7.92.35.4.7.75,1.15.75h.03c.36-.01.7-.25,1.07-.74l.42-.56c2.01-2.66,4.09-5.41,5.67-8.45.42-.82.81-1.26,1.86-1.23,3.71.08,7.55.08,11.72,0,.56,0,.88.07,1.05.25.17.17.23.5.21,1.03h0Zm-30.77,18.21c.06-.51-.2-1.04-.85-1.71-1.85-1.91-3.65-3.94-5.39-5.9-.67-.75-1.33-1.5-2-2.25-3.86-4.29-4.85-4.31-9.56-.14-.11.08-.18.15-.26.22-.04.04-.08.08-.14.14-1.92,1.89-3.45,3.8-2.62,8.03l.05.12c.42,1.13,1.12,3.03,4.07,4.47,1.86,1.1,3.9,1.64,6.06,1.64,2.97,0,6.15-1.04,9.34-3.09.64-.41,1.24-.88,1.32-1.53h0Zm-.67-.08c-.03.29-.34.59-1.01,1.03-5.28,3.4-10.5,3.9-14.71,1.42-.42-.2-.77-.42-1.09-.63.01-3.72.03-7.44.04-11.16.02-.02.02-.03.05-.04,2.26-2,3.55-2.95,4.68-2.95s2.19,1.04,3.96,3.01c.67.74,1.34,1.49,2,2.24,1.75,1.97,3.55,4,5.41,5.92.48.5.7.87.66,1.15h0Zm-1.07-27.41c1.35-1.25,1.96-2.65,1.74-3.97-.22-1.31-1.27-2.42-2.94-3.14-.68-.29-1.57-.56-2.09-.5-2.09.08-4.19.43-5.35,2.51-.94,1.69.08,2.95.9,3.97.16.2.32.4.46.59,1.26,1.73,2.24,2.52,3.29,2.62.08,0,.17.01.25.01,1.02,0,2.13-.63,3.73-2.11h0Zm-.46-.51c-1.56,1.44-2.62,2.01-3.46,1.93-.84-.08-1.68-.78-2.81-2.35-.15-.21-.32-.41-.49-.62-.8-.99-1.55-1.92-.83-3.2.81-1.44,2.19-2.07,4.82-2.17.03,0,.06,0,.1,0,.31,0,.91.13,1.66.45,1.45.62,2.35,1.55,2.54,2.62.18,1.07-.36,2.26-1.53,3.34h0Z"/>
      <polygon class="cls-2" points="0 85.87 0 86.66 194.73 86.66 194.73 85.87 0 85.87 0 85.87"/>
      <polygon class="cls-2" points="0 105.65 0 106.44 194.73 106.44 194.73 105.65 0 105.65 0 105.65"/>
    </g>
  </g>
</svg>